<?xml version="1.0" standalone="no"?>
<!DOCTYPE svg PUBLIC "-//W3C//DTD SVG 20010904//EN"
 "http://www.w3.org/TR/2001/REC-SVG-20010904/DTD/svg10.dtd">
<svg version="1.0" xmlns="http://www.w3.org/2000/svg"
 width="128.000000pt" height="128.000000pt" viewBox="0 0 128.000000 128.000000"
 preserveAspectRatio="xMidYMid meet">
<metadata>
Created by potrace 1.11, written by Peter Selinger 2001-2013
</metadata>
<g transform="translate(0.000000,128.000000) scale(0.100000,-0.100000)"
fill="#000000" stroke="none">
<path d="M290 1212 c-15 -12 -23 -30 -23 -55 -1 -24 -6 -37 -15 -37 -24 0 -70
-32 -81 -57 -15 -32 -15 -848 -1 -889 6 -16 22 -37 37 -48 24 -17 50 -19 427
-19 373 -1 404 1 433 18 17 10 36 29 42 42 15 33 15 863 0 896 -11 25 -57 57
-81 57 -9 0 -15 13 -16 38 -4 48 -30 75 -65 67 -28 -7 -41 -32 -40 -78 l0 -27
-266 2 -266 3 -3 41 c-2 33 -8 44 -28 53 -31 14 -28 14 -54 -7z"/>
</g>
</svg>
